Coordinates
version=1
nRows=16
nColumns=36
inDegrees=yes

Units are S.I. units (second, meters, Newtons, ...)
If the header above contains a line with 'inDegrees', this indicates whether rotational values are in degrees (yes) or radians (no).

endheader
time	pelvis_tilt	pelvis_list	pelvis_rotation	pelvis_tx	pelvis_ty	pelvis_tz	hip_flexion_r	hip_adduction_r	hip_rotation_r	knee_angle_r	knee_angle_r_beta	ankle_angle_r	subtalar_angle_r	mtp_angle_r	hip_flexion_l	hip_adduction_l	hip_rotation_l	knee_angle_l	knee_angle_l_beta	ankle_angle_l	subtalar_angle_l	mtp_angle_l	lumbar_extension	lumbar_bending	lumbar_rotation	arm_flex_r	arm_add_r	arm_rot_r	elbow_flex_r	pro_sup_r	arm_flex_l	arm_add_l	arm_rot_l	elbow_flex_l	pro_sup_l
      2.96250000	    -22.99055776	      0.61951111	     -0.43573644	      0.11099218	      0.65284658	     -0.08491203	     82.41402861	     -2.62498504	      4.36834986	     92.34915182	      1.61179676	     27.51229159	    -16.96675714	     -7.49999987	     79.91019979	      1.78242783	      9.08527355	     99.63800061	      1.73901117	     28.60434001	    -10.87139592	     -7.49999987	    -25.28694857	      0.57953969	     -3.08725986	     25.72153958	    -19.94231645	     14.04023623	     49.10208617	     77.86374577	     42.01941693	    -18.51892881	     18.52785384	     28.41353603	     54.92379472
      2.96666670	    -23.77309218	      0.49687687	     -0.34858251	      0.11058706	      0.64976227	     -0.08150833	     83.26297249	     -2.59314508	      4.19216353	     92.56012797	      1.61547899	     28.49085688	    -16.25010519	     -7.49999987	     80.65468831	      1.49941825	      9.13371799	     99.67672974	      1.73968712	     29.50611253	    -10.82689469	     -7.49999987	    -24.68918333	      0.52959230	     -3.23723969	     24.05854713	    -19.65667794	     13.38835644	     48.47505692	     78.01674484	     40.48031067	    -18.63970885	     19.08993735	     28.84391612	     55.33124724
      2.97083330	    -24.41565750	      0.57269399	     -0.26814462	      0.10879191	      0.65173265	     -0.08174794	     83.80035219	     -2.57694221	      4.31191202	     92.48253298	      1.61412470	     29.15595930	    -15.67007185	     -7.49999987	     81.18944682	      1.43835204	      8.98528814	     99.40314507	      1.73491217	     29.74939895	    -10.70371223	     -7.49999987	    -24.61993363	      0.33729987	     -3.41735364	     22.70577573	    -19.52900713	     12.60878446	     48.17602796	     77.66007056	     39.28931194	    -18.77881143	     19.51340309	     29.50337492	     55.89750166
      2.97500000	    -25.00605972	      0.65874673	     -0.42136274	      0.10965895	      0.65042119	     -0.08448268	     84.26784012	     -2.62032473	      4.48081667	     92.25244754	      1.61010895	     29.58537734	    -14.94986981	     -7.49999987	     81.61015870	      1.26182104	      8.75852397	     99.11336825	      1.72985461	     30.26753541	    -10.73042673	     -7.49999987	    -24.48622666	      0.14687918	     -3.38956767	     21.55979574	    -19.60455212	     12.06926403	     47.46215342	     77.65346985	     38.04788163	    -18.71989454	     20.10519069	     29.79258553	     56.38560152
      2.97916670	    -25.26162378	      0.64902218	     -0.34651571	      0.10622329	      0.65173799	     -0.07943663	     84.35830544	     -2.54129264	      4.50567659	     91.83079215	      1.60274968	     29.65377716	    -14.79575243	     -7.49999987	     81.77981424	      1.02792102	      8.72084504	     98.66032741	      1.72194755	     30.36346568	    -10.75546290	     -7.49999987	    -24.99969080	      0.08617893	     -3.50478716	     20.68989135	    -19.64828946	     12.04146695	     47.10698314	     77.70455502	     37.40543114	    -18.85796772	     20.22805020	     29.66134823	     56.44866345
      2.98333330	    -26.07696444	      0.89449070	     -0.45362957	      0.10531804	      0.65011304	     -0.07996259	     85.22450565	     -2.52121350	      4.64711955	     91.58614539	      1.59847979	     30.13628269	    -13.98765126	     -7.49999987	     82.43871558	      0.81293083	      8.35693173	     98.20512770	      1.71400282	     30.92051299	    -10.60577147	     -7.49999987	    -24.52897497	     -0.31313817	     -3.41242041	     19.47285815	    -19.49677601	     11.11794332	     46.12427868	     77.76569425	     36.17474956	    -19.03107304	     21.01091550	     30.45243676	     57.05135767
      2.98750000	    -26.57198656	      0.94235021	     -0.55266656	      0.10735556	      0.64606912	     -0.07943044	     85.77067567	     -2.43706788	      4.55801713	     91.76791137	      1.60165220	     30.98862095	    -13.57469795	     -7.49999987	     82.90022234	      0.56152103	      8.27808759	     98.25263767	      1.71483203	     31.63581691	    -10.95458199	     -7.49999987	    -24.24584842	     -0.43183372	     -3.39530821	     17.96698694	    -19.26077862	     10.25076859	     45.43177624	     77.77267874	     34.67899854	    -19.32244460	     21.66228400	     31.06243518	     57.69666637
      2.99166670	    -26.58406924	      0.92068690	     -0.49717845	      0.10673569	      0.64846212	     -0.07709110	     85.64931744	     -2.34032618	      4.46528047	     91.73597544	      1.60109481	     31.14584517	    -13.81602668	     -7.49999987	     82.62761307	      0.35385100	      8.20144157	     97.90303246	      1.70873026	     31.78600621	    -11.19146759	     -7.49999987	    -25.15170421	     -0.41896127	     -3.46005900	     16.85432057	    -19.33540710	     10.21159429	     45.53815281	     77.40659725	     33.83594690	    -19.53923517	     21.69980670	     31.44279173	     57.79332299
      2.99583330	    -27.37557830	      0.86816477	     -0.34386580	      0.10475008	      0.65077169	     -0.07722068	     86.37710245	     -2.33965938	      4.32529152	     91.43904679	      1.59591243	     31.17952539	    -13.53531936	     -7.49999987	     83.16848134	      0.23716977	      8.12761217	     97.26951435	      1.69767329	     31.80706800	    -11.03927095	     -7.49999987	    -24.68273105	     -0.47896145	     -3.43191986	     15.48303482	    -18.88017822	      8.87905477	     43.94168398	     77.33750668	     32.46963287	    -19.77135205	     22.69564847	     32.14715944	     58.59187662
      3.00000000	    -27.31313467	      0.81150620	     -0.21686679	      0.10166761	      0.65034113	     -0.07524973	     86.26416721	     -2.39172460	      4.14102504	     91.17781348	      1.59135305	     31.06934218	    -13.59586175	     -7.49999987	     83.08647671	     -0.05375074	      7.89606578	     96.76618699	      1.68888857	     31.76925421	    -11.14577516	     -7.49999987	    -25.72614076	     -0.45187306	     -3.51423497	     14.60538637	    -18.96699656	      8.83774586	     44.13053236	     76.93970986	     31.84270873	    -19.97590494	     22.71830100	     32.63093647	     58.65683877
      3.00416670	    -28.01539557	      0.73588565	      0.01606401	      0.10257412	      0.64809500	     -0.07557272	     87.13924805	     -2.55896107	      3.95087896	     91.11690386	      1.59028998	     30.89513316	    -13.40655564	     -7.49999987	     83.70857144	     -0.03078372	      7.87137247	     96.41981095	      1.68284317	     32.52754641	    -10.50352613	     -7.49999987	    -25.27212080	     -0.51402861	     -2.86066864	     12.52799459	    -18.46054541	      4.75040288	     43.05359802	     82.57348643	     31.44733135	    -19.84351645	     24.93496087	     32.15375927	     63.50751084
      3.00833330	    -28.50236634	      0.54593664	      0.13647929	      0.10079595	      0.64976961	     -0.07224778	     87.62453223	     -2.40850699	      3.62846507	     90.83829172	      1.58542728	     30.68066798	    -13.36144270	     -7.49999987	     84.09652599	     -0.23343201	      8.02852605	     95.91831538	      1.67409042	     32.70372029	    -10.49795588	     -7.49999987	    -25.34603170	     -0.50086277	     -2.76031876	     11.24996735	    -18.37109198	      4.27851595	     42.37075339	     82.06451858	     30.53418006	    -20.29024187	     25.08896672	     32.77631744	     63.56157018
      3.01250000	    -28.88911741	      0.44111784	      0.15647867	      0.10271359	      0.64900918	     -0.07599931	     87.91020330	     -2.49478722	      3.57108968	     90.68316901	      1.58271988	     30.68631150	    -13.21960953	     -7.49999987	     84.33176945	     -0.14836194	      8.12090600	     95.74896270	      1.67113465	     32.90162415	    -10.64557754	     -7.49999987	    -25.30642953	     -0.33063504	     -2.77440042	     10.11336478	    -18.33539555	      2.95863895	     41.34537550	     81.82470983	     29.28129120	    -20.45580494	     25.47711664	     33.11758509	     63.97823179
      3.01666670	    -29.10738074	      0.24610298	      0.26693464	      0.10228172	      0.65103560	     -0.07133942	     87.85026387	     -2.41810182	      3.38341709	     90.27631965	      1.57561901	     30.65032329	    -13.12562188	     -7.49999987	     84.25275656	     -0.36194868	      8.21341438	     95.31433977	      1.66354905	     32.88158173	    -10.63439669	     -7.49999987	    -25.75155996	     -0.35812385	     -2.79559766	      9.05697170	    -18.11937358	      2.97401818	     40.92420577	     81.83160260	     28.57481049	    -20.67844940	     25.55166573	     32.94872957	     64.00284206
      3.02083330	    -29.27546623	      0.12379505	      0.26121012	      0.09972052	      0.65040801	     -0.06898544	     87.92433546	     -2.30638241	      3.01413598	     90.10425495	      1.57261592	     30.85405466	    -13.20181468	     -7.49999987	     84.29596236	     -0.67909027	      8.34502832	     95.12669526	      1.66027404	     32.91566180	    -10.64653791	     -7.49999987	    -26.11993656	     -0.48786679	     -2.79269451	      8.07639346	    -17.97959366	      2.86477438	     40.43908966	     81.81836356	     27.81405608	    -21.01413304	     25.64115168	     32.76110906	     64.03600894
      3.02500000	    -29.80140338	     -0.09231061	      0.11726962	      0.10055671	      0.65205792	     -0.06853942	     88.37371617	     -2.03111999	      2.53239730	     89.78580978	      1.56705800	     30.74478940	    -13.59305613	     -7.49999987	     84.85230403	     -1.13562742	      8.60309796	     94.98970388	      1.65788309	     32.75210651	    -10.47997314	     -7.49999987	    -26.11838964	     -0.51416123	     -2.76041717	      7.42667761	    -17.34752546	      1.31829675	     38.80368096	     81.35564139	     26.69324532	    -21.29127629	     26.05421985	     32.83094836	     64.23411745
